<svg xmlns="http://www.w3.org/2000/svg" xmlns:xlink="http://www.w3.org/1999/xlink" width="100" zoomAndPan="magnify" viewBox="0 0 75 74.999997" height="100" preserveAspectRatio="xMidYMid meet" version="1.0"><defs><clipPath id="97632e80a1"><path d="M 12.148438 7.75 L 34.648438 7.75 L 34.648438 30.25 L 12.148438 30.25 Z M 12.148438 7.75 " clip-rule="nonzero"/></clipPath><clipPath id="ae0f3163b4"><path d="M 15.898438 7.75 L 30.898438 7.75 C 32.972656 7.75 34.648438 9.429688 34.648438 11.5 L 34.648438 26.5 C 34.648438 28.570312 32.972656 30.25 30.898438 30.25 L 15.898438 30.25 C 13.828125 30.25 12.148438 28.570312 12.148438 26.5 L 12.148438 11.5 C 12.148438 9.429688 13.828125 7.75 15.898438 7.75 Z M 15.898438 7.75 " clip-rule="nonzero"/></clipPath><clipPath id="93db528186"><path d="M 27.09375 20.25 L 75 20.25 L 75 75 L 27.09375 75 Z M 27.09375 20.25 " clip-rule="nonzero"/></clipPath><clipPath id="a9cc5edbb6"><path d="M 56.25 0 L 18.75 0 C 8.394531 0 0 8.394531 0 18.75 L 0 56.25 C 0 66.605469 8.394531 75 18.75 75 L 56.25 75 C 66.605469 75 75 66.605469 75 56.25 L 75 18.75 C 75 8.394531 66.605469 0 56.25 0 Z M 56.25 0 " clip-rule="nonzero"/></clipPath></defs><g clip-path="url(#97632e80a1)"><g clip-path="url(#ae0f3163b4)"><path fill="#abd2ff" d="M 12.148438 7.75 L 34.648438 7.75 L 34.648438 30.25 L 12.148438 30.25 Z M 12.148438 7.75 " fill-opacity="1" fill-rule="nonzero"/></g></g><path fill="#7ac943" d="M 56.25 0 L 18.75 0 C 8.394531 0 0 8.394531 0 18.75 L 0 56.25 C 0 66.605469 8.394531 75 18.75 75 L 56.25 75 C 66.605469 75 75 66.605469 75 56.25 L 75 18.75 C 75 8.394531 66.605469 0 56.25 0 " fill-opacity="1" fill-rule="nonzero"/><g clip-path="url(#93db528186)"><g clip-path="url(#a9cc5edbb6)"><path fill="#69ad3a" d="M 91.6875 50.578125 L 61.414062 20.304688 L 27.113281 54.789062 L 54.578125 82.253906 L 68.5 70.710938 L 91.6875 50.578125 " fill-opacity="1" fill-rule="nonzero"/></g></g><path fill="#ffffff" d="M 61.414062 20.304688 C 60.414062 19.300781 59.082031 18.75 57.664062 18.75 C 56.25 18.75 54.917969 19.300781 53.914062 20.304688 L 30.777344 43.445312 L 21.085938 33.75 C 20.082031 32.75 18.75 32.199219 17.335938 32.199219 C 15.917969 32.199219 14.585938 32.75 13.585938 33.75 C 11.515625 35.820312 11.515625 39.183594 13.585938 41.25 L 26.976562 54.644531 C 26.992188 54.660156 27.007812 54.675781 27.023438 54.695312 C 27.28125 54.949219 27.558594 55.175781 27.859375 55.375 C 28.726562 55.945312 29.734375 56.25 30.78125 56.25 C 32.195312 56.25 33.527344 55.699219 34.527344 54.699219 C 34.578125 54.648438 60.320312 28.898438 61.414062 27.800781 C 62.417969 26.800781 62.96875 25.46875 62.96875 24.054688 C 62.96875 22.636719 62.417969 21.304688 61.414062 20.304688 " fill-opacity="1" fill-rule="nonzero"/></svg>