<svg xmlns="http://www.w3.org/2000/svg" xmlns:xlink="http://www.w3.org/1999/xlink" width="100" zoomAndPan="magnify" viewBox="0 0 75 74.999997" height="100" preserveAspectRatio="xMidYMid meet" version="1.0"><defs><clipPath id="fd18b41c51"><path d="M 30.300781 26.5 L 34.050781 26.5 L 34.050781 30.25 L 30.300781 30.25 Z M 30.300781 26.5 " clip-rule="nonzero"/></clipPath><clipPath id="cf2e7a0176"><path d="M 32.175781 26.5 C 32.671875 26.5 33.148438 26.699219 33.5 27.050781 C 33.851562 27.402344 34.050781 27.878906 34.050781 28.375 C 34.050781 28.871094 33.851562 29.347656 33.5 29.699219 C 33.148438 30.050781 32.671875 30.25 32.175781 30.25 C 31.675781 30.25 31.199219 30.050781 30.847656 29.699219 C 30.496094 29.347656 30.300781 28.871094 30.300781 28.375 C 30.300781 27.878906 30.496094 27.402344 30.847656 27.050781 C 31.199219 26.699219 31.675781 26.5 32.175781 26.5 Z M 32.175781 26.5 " clip-rule="nonzero"/></clipPath><clipPath id="1e8534e43c"><path d="M 5.953125 0.285156 L 68.953125 0.285156 L 68.953125 17 L 5.953125 17 Z M 5.953125 0.285156 " clip-rule="nonzero"/></clipPath></defs><g clip-path="url(#fd18b41c51)"><g clip-path="url(#cf2e7a0176)"><path fill="#abd2ff" d="M 30.300781 26.5 L 34.050781 26.5 L 34.050781 30.25 L 30.300781 30.25 Z M 30.300781 26.5 " fill-opacity="1" fill-rule="nonzero"/></g></g><g clip-path="url(#1e8534e43c)"><path fill="#bc2323" d="M 62.363281 7.027344 L 46.535156 7.027344 L 46.535156 4.4375 C 46.535156 2.167969 44.652344 0.285156 42.378906 0.285156 L 32.667969 0.285156 C 30.394531 0.285156 28.519531 2.167969 28.519531 4.4375 L 28.519531 7.027344 L 12.691406 7.027344 C 8.933594 7.027344 5.953125 10.078125 5.953125 13.757812 C 5.953125 15.015625 6.96875 16.03125 8.226562 16.03125 L 66.828125 16.03125 C 68.078125 16.03125 69.101562 15.015625 69.101562 13.757812 C 69.101562 10.078125 66.042969 7.027344 62.363281 7.027344 " fill-opacity="1" fill-rule="nonzero"/></g><path fill="#bc2323" d="M 50.375 62.726562 C 50.375 63.824219 49.4375 64.761719 48.332031 64.761719 C 47.238281 64.761719 46.296875 63.824219 46.296875 62.726562 L 46.535156 32.5625 C 46.535156 31.46875 47.476562 30.527344 48.570312 30.527344 C 49.667969 30.527344 50.605469 31.46875 50.605469 32.5625 Z M 39.558594 62.726562 C 39.558594 63.824219 38.621094 64.761719 37.523438 64.761719 C 36.425781 64.761719 35.488281 63.824219 35.488281 62.726562 L 35.488281 32.5625 C 35.488281 31.46875 36.425781 30.527344 37.523438 30.527344 C 38.621094 30.527344 39.558594 31.46875 39.558594 32.5625 Z M 26.792969 64.761719 C 26.714844 64.761719 26.714844 64.761719 26.792969 64.761719 C 25.695312 64.761719 24.757812 63.902344 24.757812 62.726562 L 24.519531 32.5625 C 24.519531 31.46875 25.378906 30.527344 26.554688 30.527344 C 27.652344 30.527344 28.597656 31.386719 28.597656 32.5625 L 28.828125 62.726562 C 28.75 63.824219 27.890625 64.761719 26.792969 64.761719 Z M 63.300781 20.578125 L 11.746094 20.578125 C 11.046875 20.578125 10.5 21.207031 10.652344 21.832031 L 16.683594 69.9375 C 17 72.679688 19.347656 74.714844 22.09375 74.714844 L 53.117188 74.714844 C 55.859375 74.714844 58.132812 72.679688 58.523438 69.9375 L 64.554688 21.832031 C 64.476562 21.207031 64.007812 20.578125 63.300781 20.578125 " fill-opacity="1" fill-rule="nonzero"/></svg>