<svg xmlns="http://www.w3.org/2000/svg" xmlns:xlink="http://www.w3.org/1999/xlink" width="100" zoomAndPan="magnify" viewBox="0 0 75 74.999997" height="100" preserveAspectRatio="xMidYMid meet" version="1.0"><defs><clipPath id="ff0e92b079"><path d="M 18.75 0 L 56.25 0 C 61.222656 0 65.992188 1.976562 69.507812 5.492188 C 73.023438 9.007812 75 13.777344 75 18.75 L 75 56.25 C 75 61.222656 73.023438 65.992188 69.507812 69.507812 C 65.992188 73.023438 61.222656 75 56.25 75 L 18.75 75 C 13.777344 75 9.007812 73.023438 5.492188 69.507812 C 1.976562 65.992188 0 61.222656 0 56.25 L 0 18.75 C 0 13.777344 1.976562 9.007812 5.492188 5.492188 C 9.007812 1.976562 13.777344 0 18.75 0 Z M 18.75 0 " clip-rule="nonzero"/></clipPath></defs><g clip-path="url(#ff0e92b079)"><path stroke-linecap="butt" transform="matrix(0.75, 0, 0, 0.75, 0.0000015, -0.000001)" fill="none" stroke-linejoin="miter" d="M 25.000002 0.00000133333 L 75.000009 0.00000133333 C 81.630218 0.00000133333 87.989594 2.635418 92.677095 7.322919 C 97.364596 12.01042 100.000013 18.369796 100.000013 25.000005 L 100.000013 75.000012 C 100.000013 81.630222 97.364596 87.989597 92.677095 92.677098 C 87.989594 97.364599 81.630218 100.000016 75.000009 100.000016 L 25.000002 100.000016 C 18.369792 100.000016 12.010416 97.364599 7.322916 92.677098 C 2.635415 87.989597 -0.000002 81.630222 -0.000002 75.000012 L -0.000002 25.000005 C -0.000002 18.369796 2.635415 12.01042 7.322916 7.322919 C 12.010416 2.635418 18.369792 0.00000133333 25.000002 0.00000133333 Z M 25.000002 0.00000133333 " stroke="#000000" stroke-width="10" stroke-opacity="1" stroke-miterlimit="4"/></g></svg>