<svg xmlns="http://www.w3.org/2000/svg" xmlns:xlink="http://www.w3.org/1999/xlink" width="40" zoomAndPan="magnify" viewBox="0 0 30 30.000001" height="40" preserveAspectRatio="xMidYMid meet" version="1.0"><defs><clipPath id="b859288825"><path d="M 15 9.820312 L 22.257812 9.820312 L 22.257812 11 L 15 11 Z M 15 9.820312 " clip-rule="nonzero"/></clipPath><clipPath id="695096c0ba"><path d="M 2.082031 1 L 27 1 L 27 29 L 2.082031 29 Z M 2.082031 1 " clip-rule="nonzero"/></clipPath></defs><g clip-path="url(#b859288825)"><path fill="#ffffff" d="M 15.046875 10.332031 C 15.046875 10.320312 15.050781 10.308594 15.050781 10.292969 C 15.101562 10.023438 15.339844 9.832031 15.609375 9.820312 C 15.621094 9.820312 15.632812 9.820312 15.640625 9.820312 C 16.480469 9.820312 20.804688 9.820312 21.640625 9.820312 C 21.898438 9.820312 22.085938 9.9375 22.195312 10.171875 C 22.285156 10.371094 22.242188 10.617188 22.097656 10.78125 C 21.988281 10.902344 21.835938 10.96875 21.675781 10.976562 C 21.664062 10.976562 21.652344 10.976562 21.640625 10.976562 C 20.804688 10.976562 16.480469 10.976562 15.640625 10.976562 C 15.480469 10.976562 15.324219 10.925781 15.210938 10.804688 C 15.089844 10.679688 15.027344 10.503906 15.046875 10.332031 Z M 20.382812 9.902344 C 19.957031 9.902344 16.046875 9.902344 15.621094 9.90625 C 15.289062 9.90625 15.054688 10.21875 15.144531 10.535156 C 15.207031 10.75 15.398438 10.890625 15.632812 10.890625 C 16.476562 10.890625 20.804688 10.890625 21.648438 10.890625 C 21.664062 10.890625 21.675781 10.890625 21.691406 10.890625 C 21.984375 10.878906 22.207031 10.597656 22.152344 10.308594 C 22.101562 10.070312 21.90625 9.90625 21.660156 9.90625 C 21.234375 9.902344 20.808594 9.902344 20.382812 9.902344 Z M 20.382812 9.902344 " fill-opacity="1" fill-rule="nonzero"/></g><path fill="#ffffff" d="M 21.773438 10.53125 C 21.8125 10.570312 21.851562 10.609375 21.886719 10.644531 C 21.914062 10.671875 21.917969 10.699219 21.898438 10.714844 C 21.871094 10.738281 21.847656 10.726562 21.828125 10.703125 C 21.800781 10.671875 21.769531 10.644531 21.738281 10.613281 C 21.722656 10.59375 21.707031 10.589844 21.683594 10.605469 C 21.566406 10.671875 21.421875 10.652344 21.332031 10.554688 C 21.238281 10.460938 21.226562 10.3125 21.296875 10.203125 C 21.378906 10.070312 21.550781 10.03125 21.683594 10.109375 C 21.820312 10.1875 21.867188 10.359375 21.792969 10.496094 C 21.785156 10.507812 21.78125 10.515625 21.773438 10.53125 Z M 21.335938 10.355469 C 21.332031 10.449219 21.398438 10.535156 21.488281 10.554688 C 21.535156 10.566406 21.585938 10.570312 21.625 10.542969 C 21.664062 10.515625 21.699219 10.484375 21.722656 10.449219 C 21.765625 10.375 21.75 10.28125 21.691406 10.21875 C 21.632812 10.15625 21.542969 10.132812 21.464844 10.164062 C 21.386719 10.195312 21.335938 10.269531 21.335938 10.355469 Z M 21.335938 10.355469 " fill-opacity="1" fill-rule="nonzero"/><g clip-path="url(#695096c0ba)"><path fill="#000000" d="M 2.378906 27.320312 L 8.382812 19.285156 C 8.078125 18.945312 7.792969 18.589844 7.53125 18.214844 C 7.265625 17.839844 7.027344 17.453125 6.816406 17.046875 C 6.601562 16.640625 6.414062 16.222656 6.253906 15.792969 C 6.09375 15.363281 5.957031 14.925781 5.851562 14.480469 C 5.746094 14.035156 5.667969 13.582031 5.617188 13.125 C 5.570312 12.667969 5.546875 12.210938 5.554688 11.75 C 5.5625 11.292969 5.601562 10.835938 5.667969 10.382812 C 5.730469 9.925781 5.824219 9.476562 5.945312 9.035156 C 6.070312 8.59375 6.21875 8.160156 6.394531 7.738281 C 6.570312 7.3125 6.769531 6.902344 7 6.503906 C 7.226562 6.109375 7.476562 5.726562 7.753906 5.363281 C 8.027344 4.996094 8.328125 4.652344 8.644531 4.324219 C 8.964844 3.996094 9.300781 3.691406 9.660156 3.410156 C 10.015625 3.125 10.390625 2.867188 10.78125 2.628906 C 11.167969 2.394531 11.574219 2.183594 11.988281 2 C 12.40625 1.816406 12.832031 1.660156 13.265625 1.53125 C 13.703125 1.402344 14.144531 1.304688 14.59375 1.230469 C 15.042969 1.160156 15.492188 1.117188 15.945312 1.101562 C 16.398438 1.085938 16.851562 1.101562 17.304688 1.148438 C 17.757812 1.191406 18.203125 1.265625 18.648438 1.367188 C 19.089844 1.46875 19.523438 1.597656 19.949219 1.753906 C 20.375 1.910156 20.792969 2.09375 21.195312 2.304688 C 21.597656 2.515625 21.988281 2.753906 22.359375 3.011719 C 22.734375 3.273438 23.089844 3.558594 23.429688 3.863281 C 23.765625 4.171875 24.085938 4.496094 24.382812 4.84375 C 24.679688 5.191406 24.953125 5.558594 25.203125 5.941406 C 25.457031 6.324219 25.683594 6.71875 25.882812 7.132812 C 26.085938 7.542969 26.257812 7.964844 26.40625 8.398438 C 26.554688 8.832031 26.675781 9.277344 26.769531 9.726562 C 26.863281 10.175781 26.925781 10.628906 26.960938 11.085938 C 27 11.542969 27.003906 12.003906 26.984375 12.460938 C 26.960938 12.921875 26.910156 13.375 26.832031 13.828125 C 26.753906 14.28125 26.648438 14.726562 26.511719 15.164062 C 26.378906 15.601562 26.214844 16.03125 26.027344 16.449219 C 25.839844 16.867188 25.625 17.269531 25.386719 17.660156 C 25.144531 18.050781 24.882812 18.425781 24.597656 18.78125 C 24.308594 19.136719 24.003906 19.476562 23.675781 19.792969 C 23.34375 20.109375 23 20.402344 22.632812 20.675781 C 22.269531 20.949219 21.886719 21.195312 21.488281 21.417969 C 21.09375 21.644531 20.683594 21.839844 20.261719 22.011719 C 19.839844 22.183594 19.410156 22.324219 18.972656 22.441406 C 18.53125 22.554688 18.085938 22.644531 17.636719 22.703125 C 17.1875 22.757812 16.734375 22.789062 16.28125 22.789062 C 15.828125 22.789062 15.375 22.761719 14.925781 22.703125 C 14.472656 22.644531 14.027344 22.558594 13.589844 22.441406 C 13.148438 22.328125 12.71875 22.183594 12.296875 22.015625 C 11.875 21.84375 11.464844 21.648438 11.070312 21.425781 C 10.671875 21.203125 10.292969 20.953125 9.925781 20.683594 L 4.023438 28.582031 C 3.9375 28.691406 3.839844 28.78125 3.71875 28.855469 C 3.601562 28.925781 3.472656 28.96875 3.339844 28.988281 C 3.203125 29.007812 3.066406 29 2.933594 28.964844 C 2.800781 28.929688 2.679688 28.871094 2.570312 28.785156 C 2.460938 28.703125 2.371094 28.601562 2.300781 28.480469 C 2.230469 28.359375 2.1875 28.230469 2.167969 28.09375 C 2.148438 27.957031 2.15625 27.820312 2.191406 27.6875 C 2.226562 27.550781 2.285156 27.429688 2.367188 27.316406 Z M 25.257812 11.941406 C 25.257812 11.34375 25.199219 10.753906 25.085938 10.167969 C 24.972656 9.582031 24.800781 9.015625 24.574219 8.460938 C 24.347656 7.910156 24.070312 7.386719 23.746094 6.890625 C 23.417969 6.394531 23.042969 5.933594 22.628906 5.511719 C 22.210938 5.089844 21.757812 4.714844 21.265625 4.382812 C 20.773438 4.050781 20.257812 3.769531 19.710938 3.542969 C 19.167969 3.3125 18.605469 3.140625 18.027344 3.023438 C 17.449219 2.90625 16.863281 2.847656 16.273438 2.847656 C 15.683594 2.847656 15.097656 2.90625 14.519531 3.023438 C 13.941406 3.140625 13.378906 3.3125 12.832031 3.542969 C 12.289062 3.769531 11.769531 4.050781 11.28125 4.382812 C 10.789062 4.710938 10.335938 5.089844 9.917969 5.511719 C 9.5 5.933594 9.128906 6.394531 8.800781 6.890625 C 8.472656 7.386719 8.195312 7.910156 7.96875 8.460938 C 7.746094 9.011719 7.574219 9.582031 7.460938 10.167969 C 7.34375 10.753906 7.285156 11.34375 7.285156 11.941406 C 7.285156 12.539062 7.34375 13.128906 7.460938 13.714844 C 7.574219 14.300781 7.746094 14.867188 7.972656 15.417969 C 8.195312 15.972656 8.472656 16.496094 8.800781 16.992188 C 9.128906 17.488281 9.5 17.945312 9.917969 18.371094 C 10.335938 18.792969 10.789062 19.167969 11.28125 19.5 C 11.773438 19.832031 12.289062 20.109375 12.835938 20.339844 C 13.378906 20.566406 13.941406 20.742188 14.519531 20.855469 C 15.097656 20.972656 15.683594 21.03125 16.273438 21.03125 C 16.863281 21.03125 17.449219 20.972656 18.027344 20.855469 C 18.605469 20.738281 19.167969 20.566406 19.710938 20.339844 C 20.257812 20.109375 20.773438 19.832031 21.265625 19.5 C 21.753906 19.167969 22.210938 18.789062 22.625 18.367188 C 23.042969 17.945312 23.414062 17.488281 23.742188 16.992188 C 24.070312 16.496094 24.347656 15.972656 24.574219 15.417969 C 24.800781 14.867188 24.96875 14.300781 25.085938 13.714844 C 25.199219 13.128906 25.257812 12.539062 25.257812 11.941406 Z M 25.257812 11.941406 " fill-opacity="1" fill-rule="nonzero"/></g></svg>